<?xml version="1.0" encoding="UTF-8"?>
<svg id="Layer_2" xmlns="http://www.w3.org/2000/svg" version="1.1" viewBox="0 0 153.8 71.2">
  <!-- Generator: Adobe Illustrator 29.8.9, SVG Export Plug-In . SVG Version: 2.1.1 Build 1)  -->
  <defs>
    <style>
      .st0 {
        fill: #421b1e;
      }
    </style>
  </defs>
  <g id="Layer_1-2">
    <polygon class="st0" points="125.4 47.5 114.2 71.2 80.5 0 103 0 125.4 47.5"/>
    <circle class="st0" cx="142.6" cy="11.2" r="11.2"/>
    <path class="st0" d="M78.2,0h-22.3v11.5C52.1,5.9,44.7.5,34.9.5,14.6.5,0,15.3,0,36.7s13.7,34.5,33.9,34.5,17.7-2.4,22-7.5v7.4c6.8,0,14.6,0,22.3,0,0,0,0-71,0-71ZM39.2,52.5c-9.3,0-16.8-7.5-16.8-16.7s7.5-16.7,16.8-16.7,16.8,7.5,16.8,16.7-7.5,16.7-16.8,16.7Z"/>
  </g>
</svg>