<?xml version="1.0" encoding="UTF-8"?>
<svg id="Layer_2" data-name="Layer 2" xmlns="http://www.w3.org/2000/svg" viewBox="0 0 153.76 108.86">
  <defs>
    <style>
      .cls-1 {
        fill: #bfafaa;
      }
    </style>
  </defs>
  <g id="Layer_1-2" data-name="Layer 1">
    <path class="cls-1" d="M.02,108h22.34v-11.21c3.88,5.76,11.28,11.13,21.06,11.13,20.27,0,34.79-14.82,34.79-36.18,0-21.08-13.69-34.48-33.82-34.48-9.34,0-17.69,2.44-22,7.5L22.36.02C13.25,0,11.77,0,0,.02l.02,107.98ZM39.13,55.88c9.25,0,16.74,7.48,16.74,16.71,0,9.23-7.5,16.71-16.74,16.71-9.25,0-16.74-7.48-16.74-16.71,0-9.23,7.5-16.71,16.74-16.71Z"/>
    <polygon class="cls-1" points="125.99 84.87 114.62 108.86 80.53 36.89 103.25 36.89 125.99 84.87"/>
    <circle class="cls-1" cx="142.41" cy="48.24" r="11.35"/>
  </g>
</svg>