<?xml version="1.0" encoding="UTF-8"?>
<svg id="Layer_2" data-name="Layer 2" xmlns="http://www.w3.org/2000/svg" viewBox="0 0 782.43 557.69">
  <defs>
    <style>
      .cls-1 {
        fill: none;
        stroke: currentColor;
        stroke-miterlimit: 10;
      }
    </style>
  </defs>
  <g id="Layer_1-2" data-name="Layer 1">
    <path class="cls-1" d="M178.72,557.19c-95.97,0-178.22-76.77-178.22-213.87C.5,173.32,129.37,28.01,296.62.59v101.45c-95.96,19.19-167.25,87.74-167.25,167.26,16.45-10.97,38.39-19.19,74.03-19.19,71.29,0,134.35,52.1,134.35,148.06,0,90.48-63.06,159.03-159.03,159.03ZM620.16,557.19c-93.22,0-178.22-76.77-178.22-213.87,0-170,128.87-315.31,298.86-342.73v101.45c-95.97,19.19-167.26,87.74-167.26,164.52,16.45-10.97,41.13-16.45,74.03-16.45,71.29,0,134.35,52.1,134.35,148.06,0,90.48-65.81,159.03-161.77,159.03Z"/>
  </g>
</svg>