<?xml version="1.0" encoding="UTF-8"?>
<svg id="Layer_2" xmlns="http://www.w3.org/2000/svg" version="1.1" viewBox="0 0 153.9 71.2">
  <!-- Generator: Adobe Illustrator 29.8.9, SVG Export Plug-In . SVG Version: 2.1.1 Build 1)  -->
  <defs>
    <style>
      .st0 {
        fill: #421b1e;
      }
    </style>
  </defs>
  <g id="Layer_1-2">
    <polygon class="st0" points="125.7 47.3 114.5 70.9 80.9 0 103.3 0 125.7 47.3"/>
    <circle class="st0" cx="142.8" cy="11.2" r="11.2"/>
    <path class="st0" d="M53.8,47.1c-2.9,5-8.3,8.4-14.5,8.4-9.2,0-16.7-7.5-16.7-16.7h6.9s48.6,0,48.6,0c0-1,.1-2,.1-3C78.2,14.3,61.8,0,39.2,0S0,14.3,0,35.7s16.5,35.5,39.2,35.5,32.5-9.3,37.3-24.1c0,0-22.7,0-22.7,0ZM39.4,12.9c9.2,0,16.7,8.8,16.7,19.6H22.6c0-10.8,7.5-19.6,16.7-19.6Z"/>
    <polygon class="st0" points="78.1 38.8 15.6 38.8 15.6 26.6 77 26.4 78.1 38.8"/>
  </g>
</svg>