<?xml version="1.0" encoding="UTF-8"?>
<svg xmlns="http://www.w3.org/2000/svg" viewBox="0 0 697.47 138.89">
  <g>
    <polygon fill="currentColor" points="161.29 61.07 146.88 91.47 103.67 .26 132.47 .26 161.29 61.07"/>
    <circle fill="currentColor" cx="183.32" cy="14.56" r="14.38"/>
    <rect fill="currentColor" x="231.86" y=".28" width="2.93" height="91.2"/>
    <path fill="currentColor" d="M100.62,0h-28.75v14.42C66.88,7.01,57.35.1,44.77.1,18.69.1,0,19.18,0,46.67s17.62,44.37,43.52,44.37c12.03,0,22.76-3.14,28.31-9.65l.04,12.25c0,12.84-9.28,21.26-22.19,21.26-9.97,0-19.08-3.84-20.9-14.24H0c2.59,25.68,21.59,38.22,49.89,38.22,31.64,0,50.75-18.72,50.75-51.09l-.02-87.81ZM50.28,67.07c-11.9,0-21.55-9.63-21.55-21.5s9.65-21.5,21.55-21.5,21.55,9.63,21.55,21.5-9.65,21.5-21.55,21.5Z"/>

    <g>
      <path fill="currentColor" d="M275.42,31.35c0,11.94,6.73,17.87,16.19,17.87s14.1-5.29,14.67-11.46h-15.71v-11.38h27.89v34.06h-11.14l-.72-5.37c-3.21,3.77-9.62,6.25-16.67,6.25-16.59,0-28.21-12.18-28.21-30.37S273.65.18,292.01.18c14.18,0,25.08,8.33,26.45,21.16h-13.62c-1.52-6.25-6.97-8.97-13.14-8.97-10.74,0-16.27,7.53-16.27,18.99Z"/>
      <path fill="currentColor" d="M355.24,32h-3.93c-7.05,0-11.3,3.12-11.3,11.06v17.39h-12.34V20.46h11.62l.64,5.93c1.68-3.93,5.21-6.57,10.58-6.57,1.44,0,3.05.16,4.73.56v11.62Z"/>
      <path fill="currentColor" d="M400.44,20.38v40.07h-11.62l-.8-4.49c-2.48,3.29-7.45,5.53-12.26,5.53-9.14,0-14.75-6.09-14.75-15.95v-25.16h12.34v20.68c0,6.57,2.24,9.46,7.29,9.46s7.45-2.72,7.45-9.3v-20.84h12.34Z"/>
      <path fill="currentColor" d="M409.74,20.38h11.62l.64,4.89c2.24-3.69,7.29-6.17,12.98-6.17,11.14,0,18.91,7.77,18.91,20.68s-6.89,21.8-18.83,21.8c-5.53,0-10.66-2.08-12.98-5.13v23.24h-12.34V20.38ZM431.94,50.43c5.85,0,9.54-4.09,9.54-10.02s-3.69-10.02-9.54-10.02-9.78,4.01-9.78,10.02,4.01,10.02,9.78,10.02Z"/>
      <path fill="currentColor" d="M480.99,19.17c12.74,0,22.04,8.49,22.04,21.16s-9.3,21.08-22.04,21.08-22.12-8.42-22.12-21.08,9.3-21.16,22.12-21.16ZM480.99,50.35c5.69,0,9.62-4.01,9.62-10.1s-3.93-10.02-9.62-10.02-9.7,4.01-9.7,10.02,3.93,10.1,9.7,10.1Z"/>
    </g>

    <g>
      <path fill="currentColor" d="M498.31,1.13h13.86l11.22,29.97c1.36,3.69,2.48,7.37,3.77,12.5,1.52-5.69,2.64-8.98,3.93-12.5l11.06-29.97h13.54l-21.8,59.3h-13.38L498.31,1.13Z"/>
      <path fill="currentColor" d="M552.25,48.65c0-7.37,5.21-11.94,14.83-12.66l11.22-.88v-.64c0-3.93-2.4-6.01-6.81-6.01-5.21,0-8.01,2-8.01,5.61h-10.26c0-9.06,7.45-14.99,18.91-14.99s18.19,6.49,18.19,17.95v23.4h-10.9l-.8-5.29c-1.28,3.69-6.57,6.33-12.58,6.33-8.5,0-13.78-4.97-13.78-12.82ZM578.37,45.44v-2.16l-6.25.56c-5.37.48-7.29,1.68-7.29,4.25,0,2.89,1.76,4.25,5.53,4.25,4.73,0,8.01-2.32,8.01-6.89Z"/>
      <path fill="currentColor" d="M599.13,60.43V0h12.34v60.42h-12.34Z"/>
      <path fill="currentColor" d="M640.73,19.16c12.74,0,22.04,8.49,22.04,21.16s-9.3,21.08-22.04,21.08-22.12-8.42-22.12-21.08,9.3-21.16,22.12-21.16ZM640.73,50.33c5.69,0,9.62-4.01,9.62-10.1s-3.93-10.02-9.62-10.02-9.7,4.01-9.7,10.02,3.93,10.1,9.7,10.1Z"/>
      <path fill="currentColor" d="M697.47,31.98h-3.93c-7.05,0-11.3,3.12-11.3,11.06v17.39h-12.34V20.44h11.62l.64,5.93c1.68-3.93,5.21-6.57,10.58-6.57,1.44,0,3.04.16,4.73.56v11.62Z"/>
    </g>
  </g>
</svg>