<?xml version="1.0" encoding="UTF-8"?>
<svg id="Layer_1" xmlns="http://www.w3.org/2000/svg" version="1.1" viewBox="0 0 56.5 39.2">
  <!-- Generator: Adobe Illustrator 29.8.9, SVG Export Plug-In . SVG Version: 2.1.1 Build 1)  -->
  <defs>
    <style>
      .st0 {
        fill: #421b1e;
      }
    </style>
  </defs>
  <path class="st0" d="M28.3.1h-8.1v4.1C18.8,2.1,16.1.2,12.6.2,5.3.2,0,5.5,0,13.3s5,12.5,12.3,12.5,6.4-.9,8-2.7v3.5c0,3.6-2.6,6-6.2,6s-5.4-1.1-5.9-4H0c.7,7.2,6.1,10.8,14.1,10.8s14.3-5.3,14.3-14.4V.1ZM14.2,19c-3.4,0-6.1-2.7-6.1-6.1s2.7-6.1,6.1-6.1,6.1,2.7,6.1,6.1-2.7,6.1-6.1,6.1Z"/>
  <polygon class="st0" points="46.1 17.4 42 26.1 29.6 0 37.8 0 46.1 17.4"/>
  <circle class="st0" cx="52.4" cy="4.1" r="4.1"/>
</svg>