<?xml version="1.0" encoding="UTF-8"?>
<svg id="Layer_2" data-name="Layer 2" xmlns="http://www.w3.org/2000/svg" viewBox="0 0 48.33 48.33">
  <defs>
    <style>
      .cls-1 {
        fill: #bfafaa;
        stroke: #bfafaa;
        stroke-miterlimit: 10;
        stroke-width: 2px;
      }
    </style>
  </defs>
  <g id="Layer_1-2" data-name="Layer 1">
    <g>
      <line class="cls-1" x1="28.36" y1="21.72" x2="45.12" y2="11.95"/>
      <line class="cls-1" x1="28.97" y1="23.51" x2="48.2" y2="20.9"/>
      <line class="cls-1" x1="28.86" y1="25.4" x2="47.62" y2="30.35"/>
      <line class="cls-1" x1="28.03" y1="27.1" x2="43.47" y2="38.85"/>
      <line class="cls-1" x1="26.61" y1="28.36" x2="36.38" y2="45.12"/>
      <line class="cls-1" x1="24.82" y1="28.97" x2="27.43" y2="48.2"/>
      <line class="cls-1" x1="22.93" y1="28.86" x2="17.99" y2="47.62"/>
      <line class="cls-1" x1="21.23" y1="28.03" x2="9.48" y2="43.47"/>
      <line class="cls-1" x1="19.98" y1="26.61" x2="3.21" y2="36.38"/>
      <line class="cls-1" x1="19.36" y1="24.82" x2=".13" y2="27.43"/>
      <line class="cls-1" x1="19.48" y1="22.93" x2=".71" y2="17.99"/>
      <line class="cls-1" x1="20.31" y1="21.23" x2="4.86" y2="9.48"/>
      <line class="cls-1" x1="21.72" y1="19.98" x2="11.95" y2="3.21"/>
      <line class="cls-1" x1="23.51" y1="19.36" x2="20.9" y2=".14"/>
      <line class="cls-1" x1="25.4" y1="19.47" x2="30.35" y2=".71"/>
      <line class="cls-1" x1="27.1" y1="20.31" x2="38.85" y2="4.86"/>
    </g>
  </g>
</svg>