<?xml version="1.0" encoding="UTF-8"?>
<svg id="Layer_2" data-name="Layer 2" xmlns="http://www.w3.org/2000/svg" viewBox="0 0 339.09 339.09">
  <defs>
    <style>
      .cls-1 {
        fill: none;
        stroke: #155249;
        stroke-miterlimit: 10;
      }
    </style>
  </defs>
  <g id="Layer_1-2" data-name="Layer 1">
    <g>
      <line class="cls-1" x1="198.84" y1="152.47" x2="316.02" y2="84.17"/>
      <line class="cls-1" x1="201.06" y1="157.03" x2="327.11" y2="106.95"/>
      <line class="cls-1" x1="202.57" y1="161.86" x2="334.68" y2="131.13"/>
      <line class="cls-1" x1="203.35" y1="166.87" x2="338.56" y2="156.17"/>
      <line class="cls-1" x1="203.37" y1="171.94" x2="338.67" y2="181.51"/>
      <line class="cls-1" x1="202.63" y1="176.95" x2="334.99" y2="206.59"/>
      <line class="cls-1" x1="201.16" y1="181.8" x2="327.63" y2="230.83"/>
      <line class="cls-1" x1="198.98" y1="186.38" x2="316.73" y2="253.71"/>
      <line class="cls-1" x1="196.14" y1="190.58" x2="302.54" y2="274.7"/>
      <line class="cls-1" x1="192.71" y1="194.31" x2="285.38" y2="293.35"/>
      <line class="cls-1" x1="188.76" y1="197.48" x2="265.63" y2="309.23"/>
      <line class="cls-1" x1="184.38" y1="200.03" x2="243.74" y2="321.99"/>
      <line class="cls-1" x1="179.67" y1="201.91" x2="220.19" y2="331.35"/>
      <line class="cls-1" x1="174.74" y1="203.05" x2="195.51" y2="337.09"/>
      <line class="cls-1" x1="169.69" y1="203.45" x2="170.25" y2="339.09"/>
      <line class="cls-1" x1="164.63" y1="203.1" x2="144.97" y2="337.3"/>
      <line class="cls-1" x1="159.68" y1="201.99" x2="120.24" y2="331.76"/>
      <line class="cls-1" x1="154.96" y1="200.16" x2="96.62" y2="322.6"/>
      <line class="cls-1" x1="150.56" y1="197.64" x2="74.62" y2="310.02"/>
      <line class="cls-1" x1="146.58" y1="194.5" x2="54.74" y2="294.31"/>
      <line class="cls-1" x1="143.12" y1="190.8" x2="37.43" y2="275.8"/>
      <line class="cls-1" x1="140.25" y1="186.62" x2="23.07" y2="254.93"/>
      <line class="cls-1" x1="138.03" y1="182.06" x2="11.98" y2="232.14"/>
      <line class="cls-1" x1="136.52" y1="177.23" x2="4.41" y2="207.96"/>
      <line class="cls-1" x1="135.74" y1="172.22" x2=".53" y2="182.92"/>
      <line class="cls-1" x1="135.72" y1="167.15" x2=".42" y2="157.58"/>
      <line class="cls-1" x1="136.46" y1="162.14" x2="4.1" y2="132.5"/>
      <line class="cls-1" x1="137.93" y1="157.29" x2="11.46" y2="108.26"/>
      <line class="cls-1" x1="140.11" y1="152.71" x2="22.37" y2="85.38"/>
      <line class="cls-1" x1="142.95" y1="148.51" x2="36.55" y2="64.39"/>
      <line class="cls-1" x1="146.38" y1="144.78" x2="53.71" y2="45.74"/>
      <line class="cls-1" x1="150.33" y1="141.61" x2="73.46" y2="29.86"/>
      <line class="cls-1" x1="154.71" y1="139.06" x2="95.35" y2="17.1"/>
      <line class="cls-1" x1="159.42" y1="137.18" x2="118.9" y2="7.74"/>
      <line class="cls-1" x1="164.35" y1="136.04" x2="143.58" y2="2"/>
      <line class="cls-1" x1="169.4" y1="135.64" x2="168.84" y2="0"/>
      <line class="cls-1" x1="174.46" y1="135.99" x2="194.12" y2="1.79"/>
      <line class="cls-1" x1="179.4" y1="137.1" x2="218.85" y2="7.33"/>
      <line class="cls-1" x1="184.13" y1="138.93" x2="242.47" y2="16.49"/>
      <line class="cls-1" x1="188.53" y1="141.45" x2="264.47" y2="29.07"/>
      <line class="cls-1" x1="192.51" y1="144.59" x2="284.35" y2="44.78"/>
      <line class="cls-1" x1="195.97" y1="148.29" x2="301.66" y2="63.29"/>
    </g>
  </g>
</svg>