<?xml version="1.0" encoding="UTF-8"?>
<svg xmlns="http://www.w3.org/2000/svg" viewBox="0 0 990 214">
  <g>
    <g>
      <rect fill="currentColor" x="306.64" y="58.69" width="2.31" height="71.11"/>
      <polygon fill="currentColor" points="252.16 105.92 240.97 129.53 207.41 58.69 229.78 58.69 252.16 105.92"/>
      <circle fill="currentColor" cx="269.27" cy="69.8" r="11.17"/>

      <g>
        <path fill="currentColor" d="M327.44,82.93c0-14.29,9.09-23.69,22.76-23.69,11.44,0,19.67,6.56,21.09,16.83h-10.58c-1.36-4.58-5.26-7.18-10.76-7.18-7.42,0-11.94,5.26-11.94,13.98s4.58,13.98,11.94,13.98c5.63,0,9.77-2.78,11.01-7.3h10.39c-1.61,10.21-10.15,16.95-21.59,16.95-13.73,0-22.33-9.09-22.33-23.57Z"/>
        <path fill="currentColor" d="M392.27,73.9c9.83,0,17.01,6.56,17.01,16.33s-7.18,16.27-17.01,16.27-17.07-6.5-17.07-16.27,7.18-16.33,17.07-16.33ZM392.27,97.96c4.39,0,7.42-3.09,7.42-7.79s-3.03-7.73-7.42-7.73-7.49,3.09-7.49,7.73,3.03,7.79,7.49,7.79Z"/>
        <path fill="currentColor" d="M414.78,105.76v-30.93h8.97l.62,3.22c1.92-2.66,5.44-4.21,9.46-4.21,7.36,0,11.63,4.7,11.63,12.8v19.11h-9.53v-16.83c0-3.9-2.17-6.43-5.44-6.43-3.77,0-6.19,2.47-6.19,6.31v16.95h-9.53Z"/>
        <path fill="currentColor" d="M458.7,95.98c.12,2.17,1.73,3.46,4.64,3.46s4.33-1.05,4.33-2.66c0-.93-.49-1.92-2.78-2.41l-5.69-1.24c-5.69-1.24-8.47-3.71-8.47-9.16,0-6.43,5.51-10.14,12.93-10.14s12.19,4.21,12.19,10.45h-9.03c0-2.1-1.3-3.53-3.59-3.53-2.17,0-3.53,1.11-3.53,2.78,0,1.42,1.18,2.23,3.34,2.72l5.75,1.24c5.07,1.11,7.86,3.46,7.86,8.41,0,6.62-5.63,10.64-13.67,10.64s-13.3-4.33-13.3-10.58h9.03Z"/>
        <path fill="currentColor" d="M484.56,105.76v-23.01h-5.88v-7.92h5.88v-9.59h9.53v9.59h5.88v7.92h-5.88v23.01h-9.53Z"/>
        <path fill="currentColor" d="M525.51,83.8h-3.03c-5.44,0-8.72,2.41-8.72,8.54v13.42h-9.53v-30.87h8.97l.5,4.58c1.3-3.03,4.02-5.07,8.17-5.07,1.11,0,2.35.12,3.65.43v8.97Z"/>
        <path fill="currentColor" d="M560.4,74.83v30.93h-8.97l-.62-3.46c-1.92,2.54-5.75,4.27-9.46,4.27-7.05,0-11.38-4.7-11.38-12.31v-19.42h9.53v15.96c0,5.07,1.73,7.3,5.63,7.3s5.75-2.1,5.75-7.18v-16.08h9.53Z"/>
        <path fill="currentColor" d="M581.12,73.84c9.16,0,15.22,5.01,15.84,13.11h-9.59c-.68-3.09-2.6-4.58-5.88-4.58-4.02,0-6.62,3.03-6.62,7.79s2.41,7.86,6.5,7.86c3.34,0,5.38-1.55,6-4.58h9.59c-.62,7.79-6.93,13.11-15.59,13.11-9.77,0-16.08-6.5-16.08-16.39s6.56-16.33,15.84-16.33Z"/>
        <path fill="currentColor" d="M605.12,105.76v-23.01h-5.88v-7.92h5.88v-9.59h9.53v9.59h5.88v7.92h-5.88v23.01h-9.53Z"/>
        <path fill="currentColor" d="M639.89,73.9c9.83,0,17.01,6.56,17.01,16.33s-7.18,16.27-17.01,16.27-17.07-6.5-17.07-16.27,7.18-16.33,17.07-16.33ZM639.89,97.96c4.39,0,7.42-3.09,7.42-7.79s-3.03-7.73-7.42-7.73-7.49,3.09-7.49,7.73,3.03,7.79,7.49,7.79Z"/>
        <path fill="currentColor" d="M683.68,83.8h-3.03c-5.44,0-8.72,2.41-8.72,8.54v13.42h-9.53v-30.87h8.97l.5,4.58c1.3-3.03,4.02-5.07,8.17-5.07,1.11,0,2.35.12,3.65.43v8.97Z"/>
        <path fill="currentColor" d="M685.97,96.66c0-5.69,4.02-9.22,11.44-9.77l8.66-.68v-.49c0-3.03-1.86-4.64-5.26-4.64-4.02,0-6.19,1.55-6.19,4.33h-7.92c0-6.99,5.75-11.57,14.6-11.57s14.04,5.01,14.04,13.86v18.06h-8.41l-.62-4.08c-.99,2.85-5.07,4.89-9.71,4.89-6.56,0-10.64-3.83-10.64-9.9ZM706.14,94.19v-1.67l-4.83.43c-4.14.37-5.63,1.3-5.63,3.28,0,2.23,1.36,3.28,4.27,3.28,3.65,0,6.19-1.79,6.19-5.32Z"/>
      </g>

      <g>
        <path fill="currentColor" d="M715.97,59.98h10.7l8.66,23.13c1.05,2.85,1.92,5.69,2.91,9.65,1.18-4.39,2.04-6.93,3.03-9.65l8.54-23.13h10.45l-16.83,45.78h-10.33l-17.13-45.78Z"/>
        <path fill="currentColor" d="M757.6,96.66c0-5.69,4.02-9.22,11.44-9.77l8.66-.68v-.49c0-3.03-1.86-4.64-5.26-4.64-4.02,0-6.19,1.55-6.19,4.33h-7.92c0-6.99,5.75-11.57,14.6-11.57s14.04,5.01,14.04,13.86v18.06h-8.41l-.62-4.08c-.99,2.85-5.07,4.89-9.71,4.89-6.56,0-10.64-3.83-10.64-9.9ZM777.77,94.19v-1.67l-4.83.43c-4.14.37-5.63,1.3-5.63,3.28,0,2.23,1.36,3.28,4.27,3.28,3.65,0,6.19-1.79,6.19-5.32Z"/>
        <path fill="currentColor" d="M793.79,105.76v-46.64h9.53v46.64h-9.53Z"/>
        <path fill="currentColor" d="M825.89,73.9c9.84,0,17.01,6.56,17.01,16.33s-7.18,16.27-17.01,16.27-17.07-6.5-17.07-16.27,7.18-16.33,17.07-16.33ZM825.89,97.96c4.39,0,7.42-3.09,7.42-7.79s-3.03-7.73-7.42-7.73-7.48,3.09-7.48,7.73,3.03,7.79,7.48,7.79Z"/>
        <path fill="currentColor" d="M869.69,83.8h-3.03c-5.44,0-8.72,2.41-8.72,8.54v13.42h-9.53v-30.87h8.97l.49,4.58c1.3-3.03,4.02-5.07,8.17-5.07,1.11,0,2.35.12,3.65.43v8.97Z"/>
      </g>

      <path fill="currentColor" d="M181.41,99.55c-2.26,6.56-8.48,11.27-15.8,11.27-9.23,0-16.71-7.48-16.71-16.71s7.48-16.71,16.71-16.71c7.42,0,13.71,4.84,15.89,11.54h22.88c-2.47-18.41-18.03-30.41-38.7-30.41-22.72,0-39.19,14.31-39.19,35.65s16.47,35.51,39.19,35.51c20.62,0,36.15-11.83,38.68-30.14h-22.95Z"/>
    </g>

    <!-- rect transparente -->
    <rect width="990" height="214" fill="none"/>
  </g>
</svg>