<?xml version="1.0" encoding="UTF-8"?>
<svg xmlns="http://www.w3.org/2000/svg" viewBox="0 0 990 214">
  <g>
    <g>
      <rect fill="currentColor" x="335.25" y="58.84" width="2.31" height="71.11"/>
      <polygon fill="currentColor" points="280.76 106.06 269.57 129.67 236.01 58.84 258.38 58.84 280.76 106.06"/>
      <circle fill="currentColor" cx="297.87" cy="69.95" r="11.17"/>

      <g>
        <path fill="currentColor" d="M358.58,105.9v-45.78h29.07v9.28h-19.05v8.97h16.89v8.78h-16.89v9.46h19.05v9.28h-29.07Z"/>
        <path fill="currentColor" d="M401.51,96.13c.12,2.17,1.73,3.46,4.64,3.46s4.33-1.05,4.33-2.66c0-.93-.49-1.92-2.78-2.41l-5.69-1.24c-5.69-1.24-8.47-3.71-8.47-9.16,0-6.43,5.51-10.14,12.93-10.14s12.19,4.21,12.19,10.45h-9.03c0-2.1-1.3-3.53-3.59-3.53-2.17,0-3.53,1.11-3.53,2.78,0,1.42,1.18,2.23,3.34,2.72l5.75,1.24c5.07,1.11,7.86,3.46,7.86,8.41,0,6.62-5.63,10.64-13.67,10.64s-13.3-4.33-13.3-10.58h9.03Z"/>
        <path fill="currentColor" d="M427.37,105.9v-23.01h-5.88v-7.92h5.88v-9.59h9.53v9.59h5.88v7.92h-5.88v23.01h-9.53Z"/>
        <path fill="currentColor" d="M468.32,83.94h-3.03c-5.44,0-8.72,2.41-8.72,8.54v13.42h-9.53v-30.87h8.97l.49,4.58c1.3-3.03,4.02-5.07,8.17-5.07,1.11,0,2.35.12,3.65.43v8.97Z"/>
        <path fill="currentColor" d="M470.6,96.81c0-5.69,4.02-9.22,11.44-9.77l8.66-.68v-.49c0-3.03-1.86-4.64-5.26-4.64-4.02,0-6.19,1.55-6.19,4.33h-7.92c0-6.99,5.75-11.57,14.6-11.57s14.04,5.01,14.04,13.86v18.06h-8.41l-.62-4.08c-.99,2.85-5.07,4.89-9.71,4.89-6.56,0-10.64-3.83-10.64-9.9ZM490.77,94.34v-1.67l-4.83.43c-4.14.37-5.63,1.3-5.63,3.28,0,2.23,1.36,3.28,4.27,3.28,3.65,0,6.19-1.79,6.19-5.32Z"/>
        <path fill="currentColor" d="M509.45,105.9v-23.01h-5.88v-7.92h5.88v-9.59h9.53v9.59h5.88v7.92h-5.88v23.01h-9.53Z"/>
        <path fill="currentColor" d="M527.14,90.38c0-9.65,6.5-16.39,15.84-16.39s15.77,6.37,15.77,16.45v2.41l-22.46.12c.56,4.08,2.85,6,7.05,6,3.59,0,6.12-1.3,6.8-3.53h8.72c-1.11,6.87-7.24,11.26-15.71,11.26-9.34,0-16.02-6.8-16.02-16.33ZM536.42,87.1h12.87c0-3.28-2.41-5.38-6.25-5.38s-5.88,1.67-6.62,5.38Z"/>
        <path fill="currentColor" d="M577.68,73.92c4.21,0,7.55,1.61,9.22,4.14l.5-3.09h8.97v28.95c0,11.07-6.37,17.75-16.95,17.75-9.46,0-15.84-5.38-16.7-14.17h9.65c.19,3.46,2.78,5.51,6.99,5.51,4.58,0,7.48-2.72,7.48-7.11v-4.02c-1.86,2.23-5.32,3.65-9.34,3.65-8.66,0-14.66-6.37-14.66-15.65s6.12-15.96,14.85-15.96ZM579.6,97.24c4.33,0,7.24-3.03,7.24-7.61s-2.91-7.42-7.3-7.42-7.11,3.03-7.11,7.42,2.97,7.61,7.18,7.61Z"/>
        <path fill="currentColor" d="M602.8,64.7c0-3.03,2.41-5.38,5.44-5.38s5.38,2.35,5.38,5.38-2.41,5.44-5.38,5.44-5.44-2.41-5.44-5.44ZM603.54,74.97h9.53v30.93h-9.53v-30.93Z"/>
        <path fill="currentColor" d="M618.94,96.81c0-5.69,4.02-9.22,11.44-9.77l8.66-.68v-.49c0-3.03-1.86-4.64-5.26-4.64-4.02,0-6.19,1.55-6.19,4.33h-7.92c0-6.99,5.75-11.57,14.6-11.57s14.04,5.01,14.04,13.86v18.06h-8.41l-.62-4.08c-.99,2.85-5.07,4.89-9.71,4.89-6.56,0-10.64-3.83-10.64-9.9ZM639.11,94.34v-1.67l-4.83.43c-4.14.37-5.63,1.3-5.63,3.28,0,2.23,1.36,3.28,4.27,3.28,3.65,0,6.19-1.79,6.19-5.32Z"/>
        <path fill="currentColor" d="M661.93,96.13c.12,2.17,1.73,3.46,4.64,3.46s4.33-1.05,4.33-2.66c0-.93-.5-1.92-2.78-2.41l-5.69-1.24c-5.69-1.24-8.47-3.71-8.47-9.16,0-6.43,5.5-10.14,12.93-10.14s12.19,4.21,12.19,10.45h-9.03c0-2.1-1.3-3.53-3.59-3.53-2.17,0-3.53,1.11-3.53,2.78,0,1.42,1.18,2.23,3.34,2.72l5.75,1.24c5.07,1.11,7.86,3.46,7.86,8.41,0,6.62-5.63,10.64-13.67,10.64s-13.3-4.33-13.3-10.58h9.03Z"/>
      </g>

      <g>
        <path fill="currentColor" d="M681.19,60.13h10.7l8.66,23.13c1.05,2.85,1.92,5.69,2.91,9.65,1.18-4.39,2.04-6.93,3.03-9.65l8.54-23.13h10.45l-16.83,45.78h-10.33l-17.13-45.78Z"/>
        <path fill="currentColor" d="M722.82,96.81c0-5.69,4.02-9.22,11.44-9.77l8.66-.68v-.49c0-3.03-1.86-4.64-5.26-4.64-4.02,0-6.19,1.55-6.19,4.33h-7.92c0-6.99,5.75-11.57,14.6-11.57s14.04,5.01,14.04,13.86v18.06h-8.41l-.62-4.08c-.99,2.85-5.07,4.89-9.71,4.89-6.56,0-10.64-3.83-10.64-9.9ZM742.98,94.34v-1.67l-4.83.43c-4.14.37-5.63,1.3-5.63,3.28,0,2.23,1.36,3.28,4.27,3.28,3.65,0,6.19-1.79,6.19-5.32Z"/>
        <path fill="currentColor" d="M759,105.9v-46.64h9.53v46.64h-9.53Z"/>
        <path fill="currentColor" d="M791.11,74.05c9.84,0,17.01,6.56,17.01,16.33s-7.18,16.27-17.01,16.27-17.07-6.5-17.07-16.27,7.18-16.33,17.07-16.33ZM791.11,98.11c4.39,0,7.42-3.09,7.42-7.79s-3.03-7.73-7.42-7.73-7.48,3.09-7.48,7.73,3.03,7.79,7.48,7.79Z"/>
        <path fill="currentColor" d="M834.9,83.94h-3.03c-5.44,0-8.72,2.41-8.72,8.54v13.42h-9.53v-30.87h8.97l.49,4.58c1.3-3.03,4.02-5.07,8.17-5.07,1.11,0,2.35.12,3.65.43v8.97Z"/>
      </g>

      <path fill="currentColor" d="M233.21,97.51h0c.08-1,.13-2.02.13-3.05,0-21.34-16.47-35.65-39.05-35.65s-39.19,14.31-39.19,35.65,16.47,35.51,39.19,35.51c18.24,0,32.5-9.26,37.3-24.07h-22.67c-2.89,4.99-8.27,8.36-14.46,8.36-9.23,0-16.71-7.48-16.71-16.71h55.47s0-.04,0-.04ZM194.46,71.68c7.44,0,13.75,5.7,15.91,13.58l-31.84.08c2.14-7.92,8.46-13.66,15.93-13.66Z"/>
    </g>

    <rect width="990" height="214" fill="none"/>
  </g>
</svg>