<?xml version="1.0" encoding="UTF-8"?>
<svg xmlns="http://www.w3.org/2000/svg" viewBox="0 0 990 214">
  <g>
    <g>
      <polygon fill="currentColor" points="348.82 106.74 337.58 130.45 303.88 59.31 326.34 59.31 348.82 106.74"/>
      <circle fill="currentColor" cx="366" cy="70.47" r="11.22"/>
      <rect fill="currentColor" x="403.86" y="59.33" width="2.28" height="71.12"/>

      <path fill="currentColor" d="M301.5,59.11h-22.42v11.02c-3.9-5.66-11.32-10.94-21.14-10.94-20.34,0-34.92,14.57-34.92,35.56s13.74,33.89,33.94,33.89c9.38,0,17.75-2.4,22.08-7.37l.03,9.36c0,9.81-7.24,16.24-17.31,16.24-7.77,0-14.88-2.93-16.3-10.87h-22.45c2.02,19.61,16.84,29.19,38.91,29.19,24.67,0,39.58-14.3,39.58-39.02l-.02-67.06ZM262.24,110.34c-9.28,0-16.8-7.35-16.8-16.42s7.52-16.42,16.8-16.42,16.81,7.35,16.81,16.42-7.52,16.42-16.81,16.42Z"/>

      <g>
        <path fill="currentColor" d="M437.83,83.56c0,9.31,5.25,13.94,12.62,13.94s11-4.12,11.44-8.94h-12.25v-8.88h21.75v26.56h-8.69l-.56-4.19c-2.5,2.94-7.5,4.88-13,4.88-12.94,0-22-9.5-22-23.69s9.31-24,23.62-24c11.06,0,19.56,6.5,20.62,16.5h-10.62c-1.19-4.88-5.44-7-10.25-7-8.38,0-12.69,5.88-12.69,14.81Z"/>
        <path fill="currentColor" d="M500.08,84.06h-3.06c-5.5,0-8.81,2.44-8.81,8.62v13.56h-9.62v-31.19h9.06l.5,4.62c1.31-3.06,4.06-5.12,8.25-5.12,1.12,0,2.38.12,3.69.44v9.06Z"/>
        <path fill="currentColor" d="M535.33,75v31.25h-9.06l-.62-3.5c-1.94,2.56-5.81,4.31-9.56,4.31-7.12,0-11.5-4.75-11.5-12.44v-19.62h9.62v16.12c0,5.12,1.75,7.38,5.69,7.38s5.81-2.12,5.81-7.25v-16.25h9.62Z"/>
        <path fill="currentColor" d="M542.58,75h9.06l.5,3.81c1.75-2.88,5.69-4.81,10.12-4.81,8.69,0,14.75,6.06,14.75,16.12s-5.38,17-14.69,17c-4.31,0-8.31-1.62-10.12-4v18.12h-9.62v-46.25ZM559.89,98.44c4.56,0,7.44-3.19,7.44-7.81s-2.88-7.81-7.44-7.81-7.62,3.12-7.62,7.81,3.12,7.81,7.62,7.81Z"/>
        <path fill="currentColor" d="M598.14,74.06c9.94,0,17.19,6.62,17.19,16.5s-7.25,16.44-17.19,16.44-17.25-6.56-17.25-16.44,7.25-16.5,17.25-16.5ZM598.14,98.38c4.44,0,7.5-3.12,7.5-7.88s-3.06-7.81-7.5-7.81-7.56,3.12-7.56,7.81,3.06,7.88,7.56,7.88Z"/>
      </g>

      <g>
        <path fill="currentColor" d="M611.65,59.99h10.81l8.75,23.38c1.06,2.88,1.94,5.75,2.94,9.75,1.19-4.44,2.06-7,3.06-9.75l8.62-23.38h10.56l-17,46.25h-10.44l-17.31-46.25Z"/>
        <path fill="currentColor" d="M653.72,97.05c0-5.75,4.06-9.31,11.56-9.88l8.75-.69v-.5c0-3.06-1.88-4.69-5.31-4.69-4.06,0-6.25,1.56-6.25,4.38h-8c0-7.06,5.81-11.69,14.75-11.69s14.19,5.06,14.19,14v18.25h-8.5l-.62-4.12c-1,2.88-5.12,4.94-9.81,4.94-6.62,0-10.75-3.88-10.75-10ZM674.09,94.55v-1.69l-4.88.44c-4.19.38-5.69,1.31-5.69,3.31,0,2.25,1.38,3.31,4.31,3.31,3.69,0,6.25-1.81,6.25-5.38Z"/>
        <path fill="currentColor" d="M690.28,106.24v-47.12h9.62v47.12h-9.62Z"/>
        <path fill="currentColor" d="M722.72,74.05c9.94,0,17.19,6.62,17.19,16.5s-7.25,16.44-17.19,16.44-17.25-6.56-17.25-16.44,7.25-16.5,17.25-16.5ZM722.72,98.36c4.44,0,7.5-3.12,7.5-7.88s-3.06-7.81-7.5-7.81-7.56,3.12-7.56,7.81,3.06,7.88,7.56,7.88Z"/>
        <path fill="currentColor" d="M766.97,84.05h-3.06c-5.5,0-8.81,2.44-8.81,8.62v13.56h-9.62v-31.19h9.06l.5,4.62c1.31-3.06,4.06-5.12,8.25-5.12,1.12,0,2.38.12,3.69.44v9.06Z"/>
      </g>
    </g>

    <rect width="990" height="214" fill="none"/>
  </g>
</svg>