<?xml version="1.0" encoding="UTF-8"?>
<svg xmlns="http://www.w3.org/2000/svg" viewBox="0 0 990 214">
  <g>
    <g>
      <g>
        <path fill="currentColor" d="M430.03,61.84h19.05c9.22,0,14.78,4.82,14.78,12.68,0,4.89-2.23,8.47-6.37,10.27,4.52,1.48,6.93,5.01,6.93,10.21,0,8.1-5.44,12.62-15.34,12.62h-19.05v-45.78ZM440.05,70.62v9.96h7.98c3.59,0,5.57-1.79,5.57-5.07s-1.92-4.89-5.57-4.89h-7.98ZM440.05,89v9.83h8.47c3.71,0,5.63-1.67,5.63-5.07,0-3.09-1.98-4.76-5.63-4.76h-8.47Z"/>
        <path fill="currentColor" d="M468.69,98.52c0-5.69,4.02-9.22,11.44-9.77l8.66-.68v-.49c0-3.03-1.86-4.64-5.26-4.64-4.02,0-6.19,1.55-6.19,4.33h-7.92c0-6.99,5.75-11.57,14.6-11.57s14.04,5.01,14.04,13.86v18.06h-8.41l-.62-4.08c-.99,2.85-5.07,4.89-9.71,4.89-6.56,0-10.64-3.83-10.64-9.9ZM488.86,96.05v-1.67l-4.83.43c-4.14.37-5.63,1.3-5.63,3.28,0,2.23,1.36,3.28,4.27,3.28,3.65,0,6.19-1.79,6.19-5.32Z"/>
        <path fill="currentColor" d="M504.88,107.62v-30.93h8.97l.62,3.22c1.92-2.66,5.44-4.21,9.46-4.21,7.36,0,11.63,4.7,11.63,12.8v19.11h-9.53v-16.83c0-3.9-2.17-6.43-5.44-6.43-3.77,0-6.19,2.47-6.19,6.31v16.95h-9.53Z"/>
        <path fill="currentColor" d="M556.53,75.7c9.16,0,15.22,5.01,15.84,13.11h-9.59c-.68-3.09-2.6-4.58-5.88-4.58-4.02,0-6.62,3.03-6.62,7.79s2.41,7.86,6.5,7.86c3.34,0,5.38-1.55,6-4.58h9.59c-.62,7.79-6.93,13.11-15.59,13.11-9.77,0-16.08-6.5-16.08-16.39s6.56-16.33,15.84-16.33Z"/>
        <path fill="currentColor" d="M576.26,98.52c0-5.69,4.02-9.22,11.44-9.77l8.66-.68v-.49c0-3.03-1.86-4.64-5.26-4.64-4.02,0-6.19,1.55-6.19,4.33h-7.92c0-6.99,5.75-11.57,14.6-11.57s14.04,5.01,14.04,13.86v18.06h-8.41l-.62-4.08c-.99,2.85-5.07,4.89-9.71,4.89-6.56,0-10.64-3.83-10.64-9.9ZM596.43,96.05v-1.67l-4.83.43c-4.14.37-5.63,1.3-5.63,3.28,0,2.23,1.36,3.28,4.27,3.28,3.65,0,6.19-1.79,6.19-5.32Z"/>
      </g>

      <path fill="currentColor" d="M226.35,131.9h22.34v-11.21c3.88,5.76,11.28,11.13,21.06,11.13,20.27,0,34.79-14.82,34.79-36.18,0-21.08-13.69-34.48-33.82-34.48-9.34,0-17.69,2.44-22,7.5l-.04-44.74c-9.11-.03-10.59-.03-22.36,0l.02,107.98ZM265.47,79.78c9.25,0,16.74,7.48,16.74,16.71,0,9.23-7.5,16.71-16.74,16.71-9.25,0-16.74-7.48-16.74-16.71,0-9.23,7.5-16.71,16.74-16.71Z"/>

      <polygon fill="currentColor" points="352.33 108.76 340.96 132.75 306.87 60.78 329.59 60.78 352.33 108.76"/>
      <circle fill="currentColor" cx="368.75" cy="72.13" r="11.35"/>

      <g>
        <path fill="currentColor" d="M609.95,61.84h10.7l8.66,23.13c1.05,2.85,1.92,5.69,2.91,9.65,1.18-4.39,2.04-6.93,3.03-9.65l8.54-23.13h10.45l-16.83,45.78h-10.33l-17.13-45.78Z"/>
        <path fill="currentColor" d="M651.58,98.52c0-5.69,4.02-9.22,11.44-9.77l8.66-.68v-.49c0-3.03-1.86-4.64-5.26-4.64-4.02,0-6.19,1.55-6.19,4.33h-7.92c0-6.99,5.75-11.57,14.6-11.57s14.04,5.01,14.04,13.86v18.06h-8.41l-.62-4.08c-.99,2.85-5.07,4.89-9.71,4.89-6.56,0-10.64-3.83-10.64-9.9ZM671.74,96.05v-1.67l-4.83.43c-4.14.37-5.63,1.3-5.63,3.28,0,2.23,1.36,3.28,4.27,3.28,3.65,0,6.19-1.79,6.19-5.32Z"/>
        <path fill="currentColor" d="M687.76,107.62v-46.64h9.53v46.64h-9.53Z"/>
        <path fill="currentColor" d="M719.87,75.76c9.84,0,17.01,6.56,17.01,16.33s-7.18,16.27-17.01,16.27-17.07-6.5-17.07-16.27,7.18-16.33,17.07-16.33ZM719.87,99.82c4.39,0,7.42-3.09,7.42-7.79s-3.03-7.73-7.42-7.73-7.48,3.09-7.48,7.73,3.03,7.79,7.48,7.79Z"/>
        <path fill="currentColor" d="M763.66,85.66h-3.03c-5.44,0-8.72,2.41-8.72,8.54v13.42h-9.53v-30.87h8.97l.49,4.58c1.3-3.03,4.02-5.07,8.17-5.07,1.11,0,2.35.12,3.65.43v8.97Z"/>
      </g>

      <rect fill="currentColor" x="406.42" y="60.79" width="2.31" height="71.11"/>
    </g>

    <rect width="990" height="214" fill="none"/>
  </g>
</svg>