<?xml version="1.0" encoding="UTF-8"?>
<svg id="Layer_2" data-name="Layer 2" xmlns="http://www.w3.org/2000/svg" viewBox="0 0 454.53 298.89">
  <defs>
    <style>
      .cls-1 {
        fill: #13473f;
      }
    </style>
  </defs>
  <g id="Layer_1-2" data-name="Layer 1">
    <polygon class="cls-1" points="370.64 140.27 337.45 210.3 237.91 .17 304.26 .17 370.64 140.27"/>
    <circle class="cls-1" cx="421.4" cy="33.13" r="33.13"/>
    <path class="cls-1" d="M231.17.22h-65.77v34.11C153.91,17.31,131.98,1.45,103.03,1.45,43,1.45,0,45.26,0,108.39s40.55,101.91,100.15,101.91c27.67,0,52.38-7.22,65.15-22.17l.1,21.78c20-.1,43.21,0,65.77,0V.22ZM115.71,155.25c-27.39,0-49.59-22.11-49.59-49.39s22.2-49.39,49.59-49.39,49.59,22.11,49.59,49.39-22.2,49.39-49.59,49.39Z"/>
    <g>
      <path class="cls-1" d="M.48,286.18l13.98-39.18h8.37l13.93,39.18h-9.11l-2.75-8.26h-12.65l-2.81,8.26H.48ZM14.72,270.72h7.73l-2.81-8.37c-.42-1.32-.9-2.86-1.06-3.81-.16.9-.58,2.38-1.06,3.81l-2.81,8.37Z"/>
      <path class="cls-1" d="M58.51,267.39h-2.59c-4.66,0-7.47,2.07-7.47,7.31v11.49h-8.15v-26.42h7.68l.42,3.92c1.11-2.59,3.44-4.34,6.99-4.34.95,0,2.01.11,3.12.37v7.68Z"/>
      <path class="cls-1" d="M72.91,258.86c3.76,0,7.09,1.64,8.58,4.08l.42-3.23h7.68v39.18h-8.15v-15.35c-1.54,2.01-4.92,3.39-8.58,3.39-7.89,0-12.44-6.04-12.44-14.4s5.14-13.66,12.5-13.66ZM74.92,279.57c3.81,0,6.46-2.65,6.46-6.62s-2.65-6.62-6.46-6.62-6.3,2.7-6.3,6.62,2.44,6.62,6.3,6.62Z"/>
      <path class="cls-1" d="M121.47,259.71v26.47h-7.68l-.53-2.96c-1.64,2.17-4.92,3.65-8.1,3.65-6.04,0-9.74-4.02-9.74-10.54v-16.62h8.15v13.66c0,4.34,1.48,6.25,4.82,6.25s4.92-1.8,4.92-6.14v-13.77h8.15Z"/>
      <path class="cls-1" d="M126.98,250.92c0-2.59,2.06-4.61,4.66-4.61s4.61,2.01,4.61,4.61-2.06,4.66-4.61,4.66-4.66-2.07-4.66-4.66ZM127.61,259.71h8.15v26.47h-8.15v-26.47Z"/>
      <path class="cls-1" d="M144.45,286.18v-19.7h-5.03v-6.78h5.03v-8.21h8.15v8.21h5.03v6.78h-5.03v19.7h-8.15Z"/>
      <path class="cls-1" d="M159.6,272.89c0-8.26,5.56-14.03,13.55-14.03s13.5,5.45,13.5,14.08v2.07l-19.22.11c.48,3.5,2.44,5.14,6.04,5.14,3.07,0,5.24-1.11,5.82-3.02h7.47c-.95,5.88-6.19,9.64-13.45,9.64-8,0-13.71-5.82-13.71-13.98ZM167.54,270.09h11.01c0-2.81-2.06-4.61-5.35-4.61s-5.03,1.43-5.67,4.61Z"/>
      <path class="cls-1" d="M203.6,258.86c7.84,0,13.02,4.29,13.55,11.23h-8.21c-.58-2.65-2.22-3.92-5.03-3.92-3.44,0-5.67,2.59-5.67,6.67s2.06,6.72,5.56,6.72c2.86,0,4.61-1.32,5.14-3.92h8.21c-.53,6.67-5.93,11.23-13.34,11.23-8.37,0-13.77-5.56-13.77-14.03s5.61-13.98,13.55-13.98Z"/>
      <path class="cls-1" d="M224.14,286.18v-19.7h-5.03v-6.78h5.03v-8.21h8.15v8.21h5.03v6.78h-5.03v19.7h-8.15Z"/>
      <path class="cls-1" d="M266.71,259.71v26.47h-7.68l-.53-2.96c-1.64,2.17-4.92,3.65-8.1,3.65-6.04,0-9.74-4.02-9.74-10.54v-16.62h8.15v13.66c0,4.34,1.48,6.25,4.82,6.25s4.92-1.8,4.92-6.14v-13.77h8.15Z"/>
      <path class="cls-1" d="M291.07,267.39h-2.59c-4.66,0-7.47,2.07-7.47,7.31v11.49h-8.15v-26.42h7.68l.42,3.92c1.11-2.59,3.44-4.34,6.99-4.34.95,0,2.01.11,3.12.37v7.68Z"/>
      <path class="cls-1" d="M293.03,278.4c0-4.87,3.44-7.89,9.8-8.37l7.41-.58v-.42c0-2.59-1.59-3.97-4.5-3.97-3.44,0-5.29,1.32-5.29,3.71h-6.78c0-5.98,4.92-9.9,12.5-9.9s12.02,4.29,12.02,11.86v15.46h-7.2l-.53-3.49c-.85,2.44-4.34,4.18-8.31,4.18-5.61,0-9.11-3.28-9.11-8.47ZM310.29,276.28v-1.43l-4.13.37c-3.55.32-4.82,1.11-4.82,2.81,0,1.91,1.17,2.81,3.65,2.81,3.12,0,5.29-1.54,5.29-4.55Z"/>
    </g>
    <g>
      <path class="cls-1" d="M321.89,246.9h9.16l7.41,19.8c.9,2.44,1.64,4.87,2.49,8.26,1.01-3.76,1.75-5.93,2.59-8.26l7.31-19.8h8.95l-14.4,39.18h-8.84l-14.67-39.18Z"/>
      <path class="cls-1" d="M357.52,278.3c0-4.87,3.44-7.89,9.8-8.37l7.41-.58v-.42c0-2.59-1.59-3.97-4.5-3.97-3.44,0-5.29,1.32-5.29,3.71h-6.78c0-5.98,4.92-9.9,12.5-9.9s12.02,4.29,12.02,11.86v15.46h-7.2l-.53-3.49c-.85,2.44-4.34,4.18-8.31,4.18-5.61,0-9.11-3.28-9.11-8.47ZM374.78,276.18v-1.43l-4.13.37c-3.55.32-4.82,1.11-4.82,2.81,0,1.91,1.17,2.81,3.65,2.81,3.12,0,5.29-1.54,5.29-4.55Z"/>
      <path class="cls-1" d="M388.5,286.09v-39.92h8.15v39.92h-8.15Z"/>
      <path class="cls-1" d="M415.98,258.82c8.42,0,14.56,5.61,14.56,13.98s-6.14,13.93-14.56,13.93-14.61-5.56-14.61-13.93,6.14-13.98,14.61-13.98ZM415.98,279.41c3.76,0,6.35-2.65,6.35-6.67s-2.59-6.62-6.35-6.62-6.41,2.65-6.41,6.62,2.59,6.67,6.41,6.67Z"/>
      <path class="cls-1" d="M453.47,267.29h-2.59c-4.66,0-7.47,2.07-7.47,7.31v11.49h-8.15v-26.42h7.68l.42,3.92c1.11-2.59,3.44-4.34,6.99-4.34.95,0,2.01.11,3.12.37v7.68Z"/>
    </g>
  </g>
</svg>