<?xml version="1.0" encoding="UTF-8"?>
<svg xmlns="http://www.w3.org/2000/svg" viewBox="0 0 990 214">
  <g>
    <g>
      <path fill="currentColor" d="M160.89,166.68c11.77.03,13.25.03,22.36,0l.04-44.74c4.31,5.06,12.65,7.5,22,7.5,20.13,0,33.82-13.4,33.82-34.48,0-21.36-14.52-36.18-34.79-36.18-9.78,0-17.18,5.37-21.06,11.13v-11.21s-22.34,0-22.34,0l-.02,107.98ZM183.28,94.11c0-9.23,7.5-16.71,16.74-16.71,9.25,0,16.74,7.48,16.74,16.71s-7.5,16.71-16.74,16.71c-9.25,0-16.74-7.48-16.74-16.71Z"/>
      <polygon fill="currentColor" points="286.92 107.24 275.55 131.23 241.46 59.26 264.18 59.26 286.92 107.24"/>
      <circle fill="currentColor" cx="303.34" cy="70.61" r="11.35"/>

      <g>
        <path fill="currentColor" d="M675.4,60.32h10.7l8.66,23.13c1.05,2.85,1.92,5.69,2.91,9.65,1.18-4.39,2.04-6.93,3.03-9.65l8.54-23.13h10.45l-16.83,45.78h-10.33l-17.13-45.78Z"/>
        <path fill="currentColor" d="M717.03,97c0-5.69,4.02-9.22,11.44-9.77l8.66-.68v-.49c0-3.03-1.86-4.64-5.26-4.64-4.02,0-6.19,1.55-6.19,4.33h-7.92c0-6.99,5.75-11.57,14.6-11.57s14.04,5.01,14.04,13.86v18.06h-8.41l-.62-4.08c-.99,2.85-5.07,4.89-9.71,4.89-6.56,0-10.64-3.83-10.64-9.9ZM737.19,94.53v-1.67l-4.83.43c-4.14.37-5.63,1.3-5.63,3.28,0,2.23,1.36,3.28,4.27,3.28,3.65,0,6.19-1.79,6.19-5.32Z"/>
        <path fill="currentColor" d="M753.22,106.09v-46.64h9.53v46.64h-9.53Z"/>
        <path fill="currentColor" d="M785.32,74.24c9.84,0,17.01,6.56,17.01,16.33s-7.18,16.27-17.01,16.27-17.07-6.5-17.07-16.27,7.18-16.33,17.07-16.33ZM785.32,98.3c4.39,0,7.42-3.09,7.42-7.79s-3.03-7.73-7.42-7.73-7.48,3.09-7.48,7.73,3.03,7.79,7.48,7.79Z"/>
        <path fill="currentColor" d="M829.11,84.13h-3.03c-5.44,0-8.72,2.41-8.72,8.54v13.42h-9.53v-30.87h8.97l.49,4.58c1.3-3.03,4.02-5.07,8.17-5.07,1.11,0,2.35.12,3.65.43v8.97Z"/>
      </g>

      <rect fill="currentColor" x="341.01" y="59.27" width="2.31" height="71.11"/>

      <g>
        <path fill="currentColor" d="M374.18,91.69v15.22h-10.02v-45.78h18.56c9.34,0,15.59,6.12,15.59,15.28s-6.25,15.28-15.59,15.28h-8.54ZM374.18,70.04v12.74h6.31c4.83,0,7.24-2.1,7.24-6.37s-2.41-6.37-7.24-6.37h-6.31Z"/>
        <path fill="currentColor" d="M424.72,84.95h-3.03c-5.44,0-8.72,2.41-8.72,8.54v13.42h-9.53v-30.87h8.97l.5,4.58c1.3-3.03,4.02-5.07,8.17-5.07,1.11,0,2.35.12,3.65.43v8.97Z"/>
        <path fill="currentColor" d="M444.02,75.06c9.84,0,17.01,6.56,17.01,16.33s-7.18,16.27-17.01,16.27-17.07-6.5-17.07-16.27,7.18-16.33,17.07-16.33ZM444.02,99.12c4.39,0,7.42-3.09,7.42-7.79s-3.03-7.73-7.42-7.73-7.48,3.09-7.48,7.73,3.03,7.79,7.48,7.79Z"/>
        <path fill="currentColor" d="M466.53,106.91v-30.93h8.91l.62,3.22c1.55-2.17,4.58-4.21,9.03-4.21s7.61,2.17,9.4,5.44c1.61-3.28,5.26-5.44,9.71-5.44,7.98,0,11.94,4.64,11.94,11.69v20.23h-9.53v-17.57c0-3.9-2.04-5.75-5.07-5.75-2.72,0-5.44,1.49-5.44,6.74v16.58h-9.53v-17.57c0-3.83-1.98-5.69-5.01-5.69-2.72,0-5.51,1.48-5.51,6.68v16.58h-9.53Z"/>
        <path fill="currentColor" d="M538.35,75.06c9.84,0,17.01,6.56,17.01,16.33s-7.18,16.27-17.01,16.27-17.07-6.5-17.07-16.27,7.18-16.33,17.07-16.33ZM538.35,99.12c4.39,0,7.42-3.09,7.42-7.79s-3.03-7.73-7.42-7.73-7.48,3.09-7.48,7.73,3.03,7.79,7.48,7.79Z"/>
        <path fill="currentColor" d="M563.53,106.91v-23.01h-5.88v-7.92h5.88v-9.59h9.53v9.59h5.88v7.92h-5.88v23.01h-9.53Z"/>
        <path fill="currentColor" d="M598.29,75.06c9.84,0,17.01,6.56,17.01,16.33s-7.18,16.27-17.01,16.27-17.07-6.5-17.07-16.27,7.18-16.33,17.07-16.33ZM598.29,99.12c4.39,0,7.42-3.09,7.42-7.79s-3.03-7.73-7.42-7.73-7.48,3.09-7.48,7.73,3.03,7.79,7.48,7.79Z"/>
        <path fill="currentColor" d="M642.09,84.95h-3.03c-5.44,0-8.72,2.41-8.72,8.54v13.42h-9.53v-30.87h8.97l.5,4.58c1.3-3.03,4.02-5.07,8.17-5.07,1.11,0,2.35.12,3.65.43v8.97Z"/>
        <path fill="currentColor" d="M644.38,97.82c0-5.69,4.02-9.22,11.44-9.77l8.66-.68v-.49c0-3.03-1.86-4.64-5.26-4.64-4.02,0-6.19,1.55-6.19,4.33h-7.92c0-6.99,5.75-11.57,14.6-11.57s14.04,5.01,14.04,13.86v18.06h-8.41l-.62-4.08c-.99,2.85-5.07,4.89-9.71,4.89-6.56,0-10.64-3.83-10.64-9.9ZM664.54,95.35v-1.67l-4.83.43c-4.14.37-5.63,1.3-5.63,3.28,0,2.23,1.36,3.28,4.27,3.28,3.65,0,6.19-1.79,6.19-5.32Z"/>
      </g>
    </g>

    <rect width="990" height="214" fill="none"/>
  </g>
</svg>