<?xml version="1.0" encoding="UTF-8"?>
<svg xmlns="http://www.w3.org/2000/svg" viewBox="0 0 990 214">
  <g>
    <polygon fill="currentColor" points="256.22 106.74 244.98 130.43 211.3 59.33 233.75 59.33 256.22 106.74"/>
    <circle fill="currentColor" cx="273.39" cy="70.48" r="11.21"/>

    <g>
      <path fill="currentColor" d="M334.29,106.45l16.45-46.1h9.84l16.38,46.1h-10.72l-3.24-9.72h-14.89l-3.3,9.72h-10.53ZM351.05,88.26h9.1l-3.3-9.84c-.5-1.56-1.06-3.36-1.25-4.49-.19,1.06-.69,2.8-1.25,4.49l-3.3,9.84Z"/>
      <path fill="currentColor" d="M402.57,84.34h-3.05c-5.48,0-8.79,2.43-8.79,8.6v13.52h-9.59v-31.09h9.03l.5,4.61c1.31-3.05,4.05-5.11,8.22-5.11,1.12,0,2.37.12,3.68.44v9.03Z"/>
      <path fill="currentColor" d="M419.52,74.31c4.42,0,8.35,1.93,10.09,4.8l.5-3.8h9.03v46.1h-9.59v-18.07c-1.81,2.37-5.79,3.99-10.09,3.99-9.28,0-14.64-7.1-14.64-16.95s6.04-16.07,14.7-16.07ZM421.89,98.66c4.49,0,7.6-3.11,7.6-7.79s-3.12-7.79-7.6-7.79-7.41,3.18-7.41,7.79,2.87,7.79,7.41,7.79Z"/>
      <path fill="currentColor" d="M476.66,75.3v31.15h-9.03l-.62-3.49c-1.93,2.55-5.79,4.3-9.53,4.3-7.1,0-11.46-4.73-11.46-12.4v-19.56h9.59v16.07c0,5.11,1.75,7.35,5.67,7.35s5.79-2.12,5.79-7.23v-16.2h9.59Z"/>
      <path fill="currentColor" d="M483.14,64.96c0-3.05,2.43-5.42,5.48-5.42s5.42,2.37,5.42,5.42-2.43,5.48-5.42,5.48-5.48-2.43-5.48-5.48ZM483.89,75.3h9.59v31.15h-9.59v-31.15Z"/>
      <path fill="currentColor" d="M503.7,106.45v-23.18h-5.92v-7.97h5.92v-9.66h9.59v9.66h5.92v7.97h-5.92v23.18h-9.59Z"/>
      <path fill="currentColor" d="M521.52,90.81c0-9.72,6.54-16.51,15.95-16.51s15.89,6.42,15.89,16.57v2.43l-22.62.12c.56,4.11,2.87,6.04,7.1,6.04,3.61,0,6.17-1.31,6.85-3.55h8.79c-1.12,6.92-7.29,11.34-15.83,11.34-9.41,0-16.14-6.85-16.14-16.45ZM530.87,87.51h12.96c0-3.3-2.43-5.42-6.29-5.42s-5.92,1.68-6.67,5.42Z"/>
      <path fill="currentColor" d="M573.3,74.31c9.22,0,15.33,5.05,15.95,13.21h-9.66c-.68-3.12-2.62-4.61-5.92-4.61-4.05,0-6.67,3.05-6.67,7.85s2.43,7.91,6.54,7.91c3.36,0,5.42-1.56,6.04-4.61h9.66c-.62,7.85-6.98,13.21-15.7,13.21-9.84,0-16.2-6.54-16.2-16.51s6.6-16.45,15.95-16.45Z"/>
      <path fill="currentColor" d="M597.47,106.45v-23.18h-5.92v-7.97h5.92v-9.66h9.59v9.66h5.92v7.97h-5.92v23.18h-9.59Z"/>
      <path fill="currentColor" d="M647.57,75.3v31.15h-9.03l-.62-3.49c-1.93,2.55-5.79,4.3-9.53,4.3-7.1,0-11.46-4.73-11.46-12.4v-19.56h9.59v16.07c0,5.11,1.75,7.35,5.67,7.35s5.79-2.12,5.79-7.23v-16.2h9.59Z"/>
      <path fill="currentColor" d="M676.23,84.34h-3.05c-5.48,0-8.79,2.43-8.79,8.6v13.52h-9.59v-31.09h9.03l.5,4.61c1.31-3.05,4.05-5.11,8.22-5.11,1.12,0,2.37.12,3.68.44v9.03Z"/>
      <path fill="currentColor" d="M678.54,97.29c0-5.73,4.05-9.28,11.53-9.84l8.72-.69v-.5c0-3.05-1.87-4.67-5.3-4.67-4.05,0-6.23,1.56-6.23,4.36h-7.97c0-7.04,5.79-11.65,14.7-11.65s14.14,5.05,14.14,13.96v18.19h-8.47l-.62-4.11c-1,2.87-5.11,4.92-9.78,4.92-6.6,0-10.72-3.86-10.72-9.97ZM698.85,94.8v-1.68l-4.86.44c-4.17.37-5.67,1.31-5.67,3.3,0,2.24,1.37,3.3,4.3,3.3,3.68,0,6.23-1.81,6.23-5.36Z"/>
    </g>

    <g>
      <path fill="currentColor" d="M704.37,60.23h10.78l8.72,23.3c1.06,2.87,1.93,5.73,2.93,9.72,1.18-4.42,2.06-6.98,3.05-9.72l8.6-23.3h10.53l-16.95,46.1h-10.4l-17.26-46.1Z"/>
      <path fill="currentColor" d="M746.31,97.18c0-5.73,4.05-9.28,11.53-9.84l8.72-.69v-.5c0-3.05-1.87-4.67-5.3-4.67-4.05,0-6.23,1.56-6.23,4.36h-7.97c0-7.04,5.79-11.65,14.7-11.65s14.14,5.05,14.14,13.96v18.19h-8.47l-.62-4.11c-1,2.87-5.11,4.92-9.78,4.92-6.6,0-10.72-3.86-10.72-9.97ZM766.62,94.68v-1.68l-4.86.44c-4.17.37-5.67,1.31-5.67,3.3,0,2.24,1.37,3.3,4.3,3.3,3.68,0,6.23-1.81,6.23-5.36Z"/>
      <path fill="currentColor" d="M782.76,106.34v-46.98h9.59v46.98h-9.59Z"/>
      <path fill="currentColor" d="M815.09,74.25c9.91,0,17.13,6.6,17.13,16.45s-7.23,16.39-17.13,16.39-17.2-6.54-17.2-16.39,7.23-16.45,17.2-16.45ZM815.09,98.49c4.42,0,7.48-3.12,7.48-7.85s-3.05-7.79-7.48-7.79-7.54,3.11-7.54,7.79,3.05,7.85,7.54,7.85Z"/>
      <path fill="currentColor" d="M859.21,84.22h-3.05c-5.48,0-8.79,2.43-8.79,8.6v13.52h-9.59v-31.09h9.03l.5,4.61c1.31-3.05,4.05-5.11,8.22-5.11,1.12,0,2.37.12,3.68.44v9.03Z"/>
    </g>

    <rect fill="currentColor" x="311.23" y="59.34" width="2.28" height="71.09"/>
    <path fill="currentColor" d="M209.02,59.34h-22.26v11.54c-3.89-5.76-11.31-11.13-21.1-11.13-20.31,0-34.87,14.83-34.87,36.19s13.72,34.49,33.89,34.49c9.36,0,17.72-2.44,22.05-7.5l.03,7.37c6.77-.03,14.62,0,22.26,0V59.34ZM169.95,111.8c-9.27,0-16.78-7.48-16.78-16.71s7.51-16.71,16.78-16.71,16.78,7.48,16.78,16.71-7.51,16.71-16.78,16.71Z"/>
    <rect fill="currentColor" x="209.02" y="59.34" width="2.28" height="71.03"/>

    <!-- 🔥 RECT TRANSPARENTE -->
    <rect width="990" height="214" fill="none"/>
  </g>
</svg>