<?xml version="1.0" encoding="UTF-8"?>
<svg id="Layer_1" xmlns="http://www.w3.org/2000/svg" version="1.1" viewBox="0 0 52.2 52.2">
  <!-- Generator: Adobe Illustrator 29.8.6, SVG Export Plug-In . SVG Version: 2.1.1 Build 1)  -->
  <defs>
    <style>
      .st0 {
        fill: #bfafaa;
      }
    </style>
  </defs>
  <path class="st0" d="M31.4,26.1L51.1,6.4c1.5-1.5,1.5-3.8,0-5.3s-3.8-1.5-5.3,0l-19.7,19.7L6.4,1.2C4.9-.3,2.6-.3,1.1,1.2s-1.5,3.8,0,5.3l19.7,19.6L1.2,45.8c-1.5,1.5-1.5,3.8,0,5.3s3.8,1.5,5.3,0l19.6-19.7,19.7,19.7c1.5,1.5,3.8,1.5,5.3,0s1.5-3.8,0-5.3c0,0-19.7-19.7-19.7-19.7Z"/>
</svg>