<?xml version="1.0" encoding="UTF-8"?>
<svg id="Layer_2" xmlns="http://www.w3.org/2000/svg" version="1.1" viewBox="0 0 153.8 108">
  <!-- Generator: Adobe Illustrator 29.8.9, SVG Export Plug-In . SVG Version: 2.1.1 Build 1)  -->
  <defs>
    <style>
      .st0 {
        fill: #421b1e;
      }
    </style>
  </defs>
  <g id="Layer_1-2">
    <path class="st0" d="M0,108c11.8,0,13.2,0,22.4,0v-44.7c4.4,5.1,12.7,7.5,22,7.5,20.1,0,33.8-13.4,33.8-34.5S63.7,0,43.4,0s-17.2,5.4-21.1,11.1V0H0v108h0ZM22.4,35.4c0-9.2,7.5-16.7,16.7-16.7s16.7,7.5,16.7,16.7-7.5,16.7-16.7,16.7-16.7-7.5-16.7-16.7Z"/>
    <polygon class="st0" points="126 48.5 114.7 72.5 80.6 .6 103.3 .6 126 48.5"/>
    <circle class="st0" cx="142.4" cy="11.9" r="11.4"/>
  </g>
</svg>